<svg xmlns="http://www.w3.org/2000/svg" viewBox="0 0 10739.0 3472.0" role="img" aria-label="TodayLocal">
  <path fill="#E39B18" d="M4557.5 812.0A812.0 812.0 0 0 1 6181.5 812.0Z"/>
  <rect fill="#FDF8EE" x="0" y="812.0" width="10739.0" height="62"/>
  <path fill="#FDF8EE" transform="translate(0.0 2962.0) scale(1 -1)" d="M306.28342056274414 1400H1080.9860000014305Q1115.6639227569103 1400 1140.5841379612684 1407.7704055011272Q1165.5043531656265 1415.5408110022545 1184.7246171981096 1423.0018903315067Q1203.9448812305927 1430.462969660759 1220.3941267728806 1430.462969660759Q1247.073815613985 1430.462969660759 1260.8187584877014 1416.8934813439846Q1274.5637013614178 1403.3239930272102 1283.1975997686386 1367.974931627512L1347.4536189734936 1007.0359615981579Q1352.546842932701 982.580036431551 1344.4417548775673 967.7825512886047Q1336.3366668224335 952.9850661456585 1316.6332423388958 949.157957226038Q1298.4145608246326 945.1410074532032 1283.9645505845547 951.9139197915792Q1269.5145403444767 958.6868321299553 1259.4145379662514 979.1817767620087Q1196.05410695076 1117.0029858648777 1147.859665647149 1188.5025239139795Q1099.6652243435383 1260.0020619630814 1056.6544226706028 1286.056117594242Q1013.6436209976673 1312.1101732254028 965.4451004266739 1312.1101732254028H881.6647698879242V142.61029982566833Q881.6647698879242 123.3102474808693 893.863914206624 111.63733400404453Q906.0630585253239 99.96442052721977 929.1376202106476 93.27122098207474L984.4228265285492 80.71018055081367Q1019.0855945646763 69.40172159671783 1019.0855945646763 38.379666805267334Q1019.0855945646763 0 969.3109855055809 0H419.4839187860489Q394.03983092308044 0 381.874570325017 10.58983102440834Q369.7093097269535 21.17966204881668 369.7093097269535 38.379666805267334Q369.7093097269535 69.40172159671783 404.3720777630806 80.71018055081367L459.6572840809822 93.27122098207474Q483.5318335592747 99.96442052721977 495.33098398149014 111.63733400404453Q507.1301344037056 123.3102474808693 507.1301344037056 142.61029982566833V1312.1101732254028H423.3498038649559Q376.9139320552349 1312.1101732254028 334.07514633238316 1284.6832753419876Q291.2363606095314 1257.2563774585724 242.54618364572525 1185.5661655813456Q193.8560066819191 1113.8759537041187 129.38036632537842 979.1817767620087Q119.48037615418434 958.6868321299553 104.93035981059074 951.9139197915792Q90.38034346699715 945.1410074532032 72.161661952734 949.157957226038Q52.95315179228783 952.9850661456585 45.03873756527901 967.7825512886047Q37.12432333827019 982.580036431551 41.341285318136215 1007.0359615981579L105.59730452299118 1367.974931627512Q114.23120293021202 1403.3239930272102 128.01428289711475 1416.8934813439846Q141.7973628640175 1430.462969660759 168.40077751874924 1430.462969660759Q184.8974868953228 1430.462969660759 203.56011134386063 1423.0018903315067Q222.22273579239845 1415.5408110022545 247.0522599965334 1407.7704055011272Q271.88178420066833 1400 306.28342056274414 1400Z"/>
  <path fill="#FDF8EE" transform="translate(1359.0 2962.0) scale(1 -1)" d="M578.8643566071987 953.9406791031361Q731.7302478849888 953.9406791031361 847.6377418637276 891.7567801773548Q963.5452358424664 829.5728812515736 1028.6324568390846 718.6050961762667Q1093.719677835703 607.6373111009598 1093.719677835703 461.623777538538Q1093.719677835703 322.464436262846 1026.1994420439005 212.65425471961498Q958.6792062520981 102.84407317638397 839.9192127287388 39.44237929582596Q721.1592192053795 -23.959314584732056 565.4831687808037 -23.959314584732056Q412.6172775030136 -23.959314584732056 296.84792672097683 38.30001391470432Q181.07857593894005 100.5593424141407 116.08203430473804 210.86443828046322Q51.08549267053604 321.16953414678574 51.08549267053604 465.45935410261154Q51.08549267053604 606.3034505546093 118.64384227991104 716.4907270520926Q186.20219188928604 826.6780035495758 305.0003108680248 890.3093413263559Q423.7984298467636 953.9406791031361 578.8643566071987 953.9406791031361ZM643.8186324834824 60.88318490982056Q695.3415746688843 69.12903276085854 725.2651388943195 118.90715217590332Q755.1887031197548 168.6852715909481 760.3755442500114 261.55734123289585Q765.5623853802681 354.4294108748436 742.0031417608261 491.28509345650673Q719.3099887669086 626.5137170851231 683.6790916323662 713.2153568118811Q648.0481944978237 799.9169965386391 601.883910253644 838.7491759806871Q555.7196260094643 877.5813554227352 501.7492100596428 868.41178175807Q449.9974220395088 859.8608604371548 420.11199490725994 809.8920555561781Q390.22656777501106 759.9232506752014 385.8210798352957 667.5655745714903Q381.4155918955803 575.2078984677792 404.1748477220535 438.16239830851555Q426.868000715971 304.0388824939728 462.7463666498661 217.05164851248264Q498.6247325837612 130.0644145309925 544.5796967595816 91.2890067845583Q590.5346609354019 52.513599038124084 643.8186324834824 60.88318490982056Z"/>
  <path fill="#FDF8EE" transform="translate(2474.0 2962.0) scale(1 -1)" d="M741.2290166318417 147.70735183358192 733.805301785469 151.62264776229858V1279.4016217887402Q733.805301785469 1300.011836796999 727.3976587355137 1309.0940636694431Q720.9900156855583 1318.1762905418873 707.2221556603909 1320.6508621573448L664.3773338198662 1324.1152624189854Q649.9162742495537 1327.579662680626 643.5950651019812 1335.3237269073725Q637.2738559544086 1343.067791134119 637.2738559544086 1355.0050737857819Q637.2738559544086 1369.0745621025562 645.4179329574108 1377.308473855257Q653.562009960413 1385.5423856079578 674.5603743195534 1393.347485870123L926.9337693154812 1476.0958686470985Q958.5676747560501 1487.8043520152569 977.2295801788568 1492.872999444604Q995.8914856016636 1497.941646873951 1013.5117964446545 1497.941646873951Q1039.7558721005917 1497.941646873951 1053.3109552413225 1483.1060551553965Q1066.8660383820534 1468.270463436842 1066.8660383820534 1445.053471148014V138.16786167025566Q1066.8660383820534 110.45262315869331 1073.5796677917242 97.48397459089756Q1080.293297201395 84.5153260231018 1095.4442318677902 79.48820489645004L1131.4513549804688 69.79327836632729Q1147.2073399424553 64.29158562421799 1154.0234822928905 55.43395473062992Q1160.8396246433258 46.576323837041855 1160.8396246433258 34.42035222053528Q1160.8396246433258 18.400016963481903 1150.187905728817 9.200008481740952Q1139.5361868143082 0 1116.376829713583 0H841.7800315618515Q799.9324350059032 0 770.5807258188725 28.190697565674782Q741.2290166318417 56.381395131349564 741.2290166318417 98.84772834181786ZM52.497316628694534 436.2341075837612Q52.497316628694534 593.3629347980022 114.2600576132536 709.7255975753069Q176.02279859781265 826.0882603526115 282.36852675676346 890.076338738203Q388.71425491571426 954.0644171237946 521.9920456707478 954.0644171237946Q633.2770508825779 954.0644171237946 711.7020823806524 908.2106386870146Q790.127113878727 862.3568602502346 842.7256224453449 772.0970678329468L778.8767392933369 727.0528607964516Q740.9915753901005 791.719646602869 694.9442013502121 822.7455246299505Q648.8968273103237 853.771402657032 591.9655063450336 853.771402657032Q534.8988019526005 853.771402657032 490.4033427089453 816.1517109572887Q445.90788346529007 778.5320192575455 420.66941010951996 694.1929472386837Q395.43093675374985 609.8538752198219 395.43093675374985 468.9152256846428Q395.43093675374985 341.6662303805351 419.19144555926323 262.22712613642216Q442.9519543647766 182.7880218923092 484.61185659468174 145.70987977087498Q526.2717588245869 108.63173764944077 580.1368693709373 108.63173764944077Q637.3391473293304 108.63173764944077 687.8736600726843 143.97862568497658Q738.4081728160381 179.3255137205124 782.1764921545982 255.31414845585823L823.4915855228901 210.54282039403915Q748.079507291317 97.70530208945274 657.090230807662 36.872993752360344Q566.100954324007 -23.959314584732056 451.5194815993309 -23.959314584732056Q335.31274631619453 -23.959314584732056 245.22118546068668 33.446693032979965Q155.12962460517883 90.85270065069199 103.81347061693668 194.36801059544086Q52.497316628694534 297.88332054018974 52.497316628694534 436.2341075837612Z"/>
  <path fill="#FDF8EE" transform="translate(3642.0 2962.0) scale(1 -1)" d="M629.3507980108261 117.4221924841404V135.45608323812485L607.9459430277348 132.00212877988815V778.121665418148Q607.9459430277348 832.1701523661613 581.3090473264456 862.4892979562283Q554.6721516251564 892.8084435462952 507.9508399069309 892.8084435462952Q463.1380615234375 892.8084435462952 437.5521060228348 871.186111971736Q411.96615052223206 849.5637803971767 411.96615052223206 817.531327277422V720.715008854866Q411.96615052223206 653.7782522439957 365.27847553789616 613.2965160310268Q318.59080055356026 572.814779818058 236.75259420275688 572.814779818058Q171.19373872876167 572.814779818058 135.86860093474388 604.3595005869865Q100.54346314072609 635.9042213559151 100.54346314072609 694.5020427107811Q100.54346314072609 754.9071330428123 152.37214997410774 814.569760337472Q204.2008368074894 874.2323876321316 306.77254126966 913.7297622412443Q409.3442457318306 953.227136850357 561.9487159848213 953.227136850357Q752.5209205746651 953.227136850357 845.8315877616405 878.9195842146873Q939.142254948616 804.6120315790176 939.142254948616 673.2971007227898V171.47404649853706Q939.142254948616 145.70939454436302 949.9855265468359 132.21864861249924Q960.8287981450558 118.72790268063545 979.9034674167633 118.72790268063545Q998.2070114910603 118.72790268063545 1010.2561340332031 129.09994971752167Q1022.305256575346 139.47199675440788 1028.9984938800335 156.16502064466476Q1033.2629196941853 162.049764752388 1038.0417506843805 165.61504185199738Q1042.8205816745758 169.18031895160675 1049.3223121762276 169.18031895160675Q1059.5460525751114 169.18031895160675 1064.1867403686047 161.90318442881107Q1068.827428162098 154.6260499060154 1068.827428162098 142.4311198592186Q1068.827428162098 110.37188720703125 1043.7877625524998 71.64758124947548Q1018.7480969429016 32.92327529191971 966.8519159853458 4.672665819525719Q914.9557350277901 -23.57794365286827 834.1192337274551 -23.57794365286827Q736.9232335984707 -23.57794365286827 683.1370158046484 15.898278549313545Q629.3507980108261 55.37450075149536 629.3507980108261 117.4221924841404ZM56.12827831506729 205.98473769426346Q56.12827831506729 330.8065347969532 165.53320793807507 404.9497744292021Q274.93813756108284 479.09301406145096 488.662598490715 479.09301406145096Q547.3833174407482 479.09301406145096 589.6202126741409 469.09717521071434Q631.8571079075336 459.1013363599777 662.9981619119644 442.1199143230915L642.3202913999557 391.95704263448715Q614.0623010694981 406.29102525115013 586.7042014449835 413.3530163317919Q559.3461018204689 420.4150074124336 525.9438854157925 420.4150074124336Q462.58351761102676 420.4150074124336 426.6372041851282 378.972490683198Q390.69089075922966 337.5299739539623 390.69089075922966 259.76726549863815Q390.69089075922966 182.89267081022263 424.20990321040154 143.889996021986Q457.7289156615734 104.88732123374939 511.2905054092407 104.88732123374939Q549.3065273463726 104.88732123374939 584.9479038566351 123.70622837543488Q620.5892803668976 142.52513551712036 642.9695170819759 173.32575383782387L661.9271569252014 127.76973494887352Q614.016722291708 55.04760608077049 527.6131918728352 15.696694120764732Q441.2096614539623 -23.654217839241028 342.72988736629486 -23.654217839241028Q215.44346034526825 -23.654217839241028 135.78586933016777 40.91945423185825Q56.12827831506729 105.49312630295753 56.12827831506729 205.98473769426346Z"/>
  <path fill="#FDF8EE" transform="translate(4697.0 2962.0) scale(1 -1)" d="M708.8671352565289 206.95979005098343 534.9537287354469 -138.01220351457596 129.65261417627335 753.7112066745758Q108.53411069512367 801.9126248657703 86.26723447442055 825.9987072497606Q64.00035825371742 850.0847896337509 30.284853667020798 859.9017271995544Q13.45941948890686 866.089841067791 7.209398850798607 874.266969487071Q0.9593782126903534 882.4440979063511 0.9593782126903534 895.3136117756367Q0.9593782126903534 911.8390327095985 12.506005346775055 920.8483673632145Q24.052632480859756 929.8577020168304 43.81369215250015 929.8577020168304H539.785359531641Q559.5565905570984 929.8577020168304 570.9506809562445 920.8720992803574Q582.3447713553905 911.8864965438843 582.3447713553905 895.2848014235497Q582.3447713553905 881.9576657116413 574.9337274581194 874.0237417519093Q567.5226835608482 866.0898177921772 550.0632899403572 861.2728802263737L508.04274478554726 853.0627344250679Q472.13571187853813 844.8847541511059 465.4983944147825 820.7958483248949Q458.8610769510269 796.7069424986839 481.5712174773216 743.2120387256145ZM514.7199987471104 -135.75991892814636 570.598876029253 3.6558521389961243 604.3580721616745 71.98943915963173 859.4551219940186 725.4577670991421Q882.1382112205029 783.0340680778027 873.1365452706814 810.263712644577Q864.1348793208599 837.4933572113514 823.1855472922325 848.1492410004139L780.86511272192 859.2169487476349Q763.748085051775 864.1101604998112 755.8039897382259 873.0864437371492Q747.8598944246769 882.0627269744873 747.8598944246769 895.2085272371769Q747.8598944246769 911.8102223575115 759.4065215587616 920.833962187171Q770.9531486928463 929.8577020168304 790.4193062484264 929.8577020168304H1058.6230973601341Q1078.8417788743973 929.8577020168304 1090.2740063667297 920.7720931768417Q1101.7062338590622 911.686484336853 1101.7062338590622 895.1610634028912Q1101.7062338590622 884.1186584532261 1094.7901042848825 875.6372895389795Q1087.873974710703 867.155920624733 1071.1281233429909 859.7881372570992Q1024.2739789485931 845.2475471198559 998.3680881261826 819.6434015929699Q972.462197303772 794.0392560660839 949.7113770544529 735.5749690830708L610.7778333723545 -119.92427864670753Q555.9967216849327 -257.2201573252678 512.6069037467241 -335.48068149387836Q469.21708580851555 -413.74120566248894 416.969724804163 -445.9316309541464Q364.7223637998104 -478.12205624580383 281.7771338522434 -478.12205624580383Q167.25214192271233 -478.12205624580383 98.98550368845463 -414.23341488838196Q30.71886545419693 -350.3447735309601 30.71886545419693 -257.12833055853844Q30.71886545419693 -188.14408114552498 65.7829738855362 -149.2816319912672Q100.84708231687546 -110.41918283700943 156.91618114709854 -110.41918283700943Q210.25990042090416 -110.41918283700943 240.43846952915192 -142.0673294365406Q270.6170386373997 -173.71547603607178 291.3760968744755 -229.454060703516L307.56569358706474 -273.84525126218796Q318.46044921875 -307.1300109922886 335.79263941943645 -329.2671069204807Q353.1248296201229 -351.40420284867287 376.1739738881588 -351.40420284867287Q396.7825681567192 -351.40420284867287 415.40131489932537 -331.5349496155977Q434.02006164193153 -311.6656963825226 457.6522890329361 -264.3448591828346Q481.28451642394066 -217.02402198314667 514.7199987471104 -135.75991892814636Z"/>
  <path fill="#FDF8EE" transform="translate(5762.0 2962.0) scale(1 -1)" d="M699.463299870491 1319.2898194491863 644.1780935525894 1306.7287790179253Q621.1035318672657 1300.111853659153 608.9043875485659 1288.4008030891418Q596.705243229866 1276.6897525191307 596.705243229866 1257.3897001743317V145.78492358326912Q596.705243229866 111.79165720939636 614.640094563365 97.99922789633274Q632.5749458968639 84.20679858326912 667.2159247994423 84.20679858326912H789.0004479289055Q841.4361511170864 84.20679858326912 884.5681874901056 101.49483796954155Q927.7002238631248 118.78287735581398 968.0642621070147 164.29360635578632Q1008.4283003509045 209.80433535575867 1050.6837776899338 295.4817236959934L1132.7693370878696 460.93830701708794Q1142.869339466095 481.68068993091583 1157.3854336589575 488.791727155447Q1171.90152785182 495.9027643799782 1190.6151236891747 490.3434742093086Q1210.5575188100338 485.0892575085163 1218.477018713951 471.29093939065933Q1226.3965186178684 457.49262127280235 1219.8185516893864 433.4553362429142L1124.5899877548218 33.014972537755966Q1115.1561015546322 -1.4578268826007843 1101.687433436513 -16.76460100710392Q1088.2187653183937 -32.071375131607056 1062.2814668416977 -32.071375131607056Q1045.5271245539188 -32.071375131607056 1025.9119145423174 -24.05353134870529Q1006.2967045307159 -16.035687565803528 980.5713620632887 -8.017843782901764Q954.8460195958614 0 918.7087304294109 0H134.52439212799072Q109.08030426502228 0 96.91504366695881 10.58983102440834Q84.74978306889534 21.17966204881668 84.74978306889534 38.379666805267334Q84.74978306889534 69.40172159671783 119.41255110502243 80.71018055081367L174.69775742292404 93.27122098207474Q198.5723069012165 99.96442052721977 210.37145732343197 111.63733400404453Q222.17060774564743 123.3102474808693 222.17060774564743 142.61029982566833V1257.3897001743317Q222.17060774564743 1276.6897525191307 210.37145732343197 1288.4008030891418Q198.5723069012165 1300.111853659153 174.69775742292404 1306.7287790179253L119.41255110502243 1319.2898194491863Q84.74978306889534 1330.5982784032822 84.74978306889534 1361.6203331947327Q84.74978306889534 1379.515264481306 96.91504366695881 1389.757632240653Q109.08030426502228 1400 134.52439212799072 1400H684.3514588475227Q709.9192847311497 1400 722.0226763188839 1389.757632240653Q734.1260679066181 1379.515264481306 734.1260679066181 1361.6203331947327Q734.1260679066181 1330.5982784032822 699.463299870491 1319.2898194491863Z"/>
  <path fill="#FDF8EE" transform="translate(6977.0 2962.0) scale(1 -1)" d="M578.8643566071987 953.9406791031361Q731.7302478849888 953.9406791031361 847.6377418637276 891.7567801773548Q963.5452358424664 829.5728812515736 1028.6324568390846 718.6050961762667Q1093.719677835703 607.6373111009598 1093.719677835703 461.623777538538Q1093.719677835703 322.464436262846 1026.1994420439005 212.65425471961498Q958.6792062520981 102.84407317638397 839.9192127287388 39.44237929582596Q721.1592192053795 -23.959314584732056 565.4831687808037 -23.959314584732056Q412.6172775030136 -23.959314584732056 296.84792672097683 38.30001391470432Q181.07857593894005 100.5593424141407 116.08203430473804 210.86443828046322Q51.08549267053604 321.16953414678574 51.08549267053604 465.45935410261154Q51.08549267053604 606.3034505546093 118.64384227991104 716.4907270520926Q186.20219188928604 826.6780035495758 305.0003108680248 890.3093413263559Q423.7984298467636 953.9406791031361 578.8643566071987 953.9406791031361ZM643.8186324834824 60.88318490982056Q695.3415746688843 69.12903276085854 725.2651388943195 118.90715217590332Q755.1887031197548 168.6852715909481 760.3755442500114 261.55734123289585Q765.5623853802681 354.4294108748436 742.0031417608261 491.28509345650673Q719.3099887669086 626.5137170851231 683.6790916323662 713.2153568118811Q648.0481944978237 799.9169965386391 601.883910253644 838.7491759806871Q555.7196260094643 877.5813554227352 501.7492100596428 868.41178175807Q449.9974220395088 859.8608604371548 420.11199490725994 809.8920555561781Q390.22656777501106 759.9232506752014 385.8210798352957 667.5655745714903Q381.4155918955803 575.2078984677792 404.1748477220535 438.16239830851555Q426.868000715971 304.0388824939728 462.7463666498661 217.05164851248264Q498.6247325837612 130.0644145309925 544.5796967595816 91.2890067845583Q590.5346609354019 52.513599038124084 643.8186324834824 60.88318490982056Z"/>
  <path fill="#FDF8EE" transform="translate(8092.0 2962.0) scale(1 -1)" d="M952.5772687494755 677.6921189129353Q952.5772687494755 612.2079718112946 908.5445872694254 569.1447573900223Q864.5119057893753 526.08154296875 789.566850155592 526.08154296875Q715.7251898348331 526.08154296875 676.5170805901289 567.6133530437946Q637.3089713454247 609.1451631188393 637.3089713454247 679.4240634739399V731.797845363617Q637.3089713454247 796.5386685729027 605.8830500245094 833.7125792503357Q574.4571287035942 870.8864899277687 521.3375661075115 870.8864899277687Q473.02317929267883 870.8864899277687 434.70560525357723 836.5692856162786Q396.38803121447563 802.2520813047886 374.3469949513674 736.3762867599726Q352.3059586882591 670.5004922151566 352.3059586882591 576.0577735006809Q352.3059586882591 451.8254214525223 391.37052488327026 366.97953325510025Q430.4350910782814 282.1336450576782 498.81247144937515 238.78441704809666Q567.1898518204689 195.4351890385151 654.8427000939846 195.4351890385151Q735.2684136927128 195.4351890385151 794.6991686373949 224.7067508995533Q854.129923582077 253.9783127605915 888.8248602449894 317.3887921869755Q903.8061993122101 333.2955985367298 912.6256931126118 338.99306966364384Q921.4451869130135 344.69054079055786 930.4791242182255 344.3854673206806Q942.6825596690178 344.0803938508034 948.3130761086941 332.4100475758314Q953.9435925483704 320.73970130085945 953.4385068714619 303.84310406446457Q945.1368333697319 210.15024000406265 889.3335595577955 135.9267211407423Q833.5302857458591 61.70320227742195 740.2991636097431 18.986355125904083Q647.0680414736271 -23.730492025613785 525.4396002292633 -23.730492025613785Q388.2616449892521 -23.730492025613785 280.6142406910658 32.34161289036274Q172.9668363928795 88.41371780633926 110.86773966252804 192.6764849126339Q48.76864293217659 296.9392520189285 48.76864293217659 441.615478515625Q48.76864293217659 588.772947460413 112.13718220591545 704.5449425131083Q175.5057214796543 820.3169375658035 289.71319161355495 887.2669515311718Q403.9206617474556 954.2169654965401 556.8425222635269 954.2169654965401Q681.8370651006699 954.2169654965401 770.2258706837893 917.1483718603849Q858.6146762669086 880.0797782242298 905.5959725081921 817.4315938651562Q952.5772687494755 754.7834095060825 952.5772687494755 677.6921189129353Z"/>
  <path fill="#FDF8EE" transform="translate(9065.0 2962.0) scale(1 -1)" d="M629.3507980108261 117.4221924841404V135.45608323812485L607.9459430277348 132.00212877988815V778.121665418148Q607.9459430277348 832.1701523661613 581.3090473264456 862.4892979562283Q554.6721516251564 892.8084435462952 507.9508399069309 892.8084435462952Q463.1380615234375 892.8084435462952 437.5521060228348 871.186111971736Q411.96615052223206 849.5637803971767 411.96615052223206 817.531327277422V720.715008854866Q411.96615052223206 653.7782522439957 365.27847553789616 613.2965160310268Q318.59080055356026 572.814779818058 236.75259420275688 572.814779818058Q171.19373872876167 572.814779818058 135.86860093474388 604.3595005869865Q100.54346314072609 635.9042213559151 100.54346314072609 694.5020427107811Q100.54346314072609 754.9071330428123 152.37214997410774 814.569760337472Q204.2008368074894 874.2323876321316 306.77254126966 913.7297622412443Q409.3442457318306 953.227136850357 561.9487159848213 953.227136850357Q752.5209205746651 953.227136850357 845.8315877616405 878.9195842146873Q939.142254948616 804.6120315790176 939.142254948616 673.2971007227898V171.47404649853706Q939.142254948616 145.70939454436302 949.9855265468359 132.21864861249924Q960.8287981450558 118.72790268063545 979.9034674167633 118.72790268063545Q998.2070114910603 118.72790268063545 1010.2561340332031 129.09994971752167Q1022.305256575346 139.47199675440788 1028.9984938800335 156.16502064466476Q1033.2629196941853 162.049764752388 1038.0417506843805 165.61504185199738Q1042.8205816745758 169.18031895160675 1049.3223121762276 169.18031895160675Q1059.5460525751114 169.18031895160675 1064.1867403686047 161.90318442881107Q1068.827428162098 154.6260499060154 1068.827428162098 142.4311198592186Q1068.827428162098 110.37188720703125 1043.7877625524998 71.64758124947548Q1018.7480969429016 32.92327529191971 966.8519159853458 4.672665819525719Q914.9557350277901 -23.57794365286827 834.1192337274551 -23.57794365286827Q736.9232335984707 -23.57794365286827 683.1370158046484 15.898278549313545Q629.3507980108261 55.37450075149536 629.3507980108261 117.4221924841404ZM56.12827831506729 205.98473769426346Q56.12827831506729 330.8065347969532 165.53320793807507 404.9497744292021Q274.93813756108284 479.09301406145096 488.662598490715 479.09301406145096Q547.3833174407482 479.09301406145096 589.6202126741409 469.09717521071434Q631.8571079075336 459.1013363599777 662.9981619119644 442.1199143230915L642.3202913999557 391.95704263448715Q614.0623010694981 406.29102525115013 586.7042014449835 413.3530163317919Q559.3461018204689 420.4150074124336 525.9438854157925 420.4150074124336Q462.58351761102676 420.4150074124336 426.6372041851282 378.972490683198Q390.69089075922966 337.5299739539623 390.69089075922966 259.76726549863815Q390.69089075922966 182.89267081022263 424.20990321040154 143.889996021986Q457.7289156615734 104.88732123374939 511.2905054092407 104.88732123374939Q549.3065273463726 104.88732123374939 584.9479038566351 123.70622837543488Q620.5892803668976 142.52513551712036 642.9695170819759 173.32575383782387L661.9271569252014 127.76973494887352Q614.016722291708 55.04760608077049 527.6131918728352 15.696694120764732Q441.2096614539623 -23.654217839241028 342.72988736629486 -23.654217839241028Q215.44346034526825 -23.654217839241028 135.78586933016777 40.91945423185825Q56.12827831506729 105.49312630295753 56.12827831506729 205.98473769426346Z"/>
  <path fill="#FDF8EE" transform="translate(10120.0 2962.0) scale(1 -1)" d="M485.3757736980915 1445.053471148014V138.16786167025566Q485.3757736980915 110.45262315869331 492.08940310776234 97.48397459089756Q498.80303251743317 84.5153260231018 513.9539671838284 79.48820489645004L549.9610902965069 69.79327836632729Q565.7170752584934 64.29158562421799 572.5332176089287 55.43395473062992Q579.3493599593639 46.576323837041855 579.3493599593639 34.42035222053528Q579.3493599593639 18.400016963481903 568.6976410448551 9.200008481740952Q558.0459221303463 0 534.8865650296211 0H101.85164856910706Q79.27365133166313 0 68.53126469254494 9.200008481740952Q57.78887805342674 18.400016963481903 57.78887805342674 34.42035222053528Q57.78887805342674 46.376311630010605 64.69569976627827 55.31021670997143Q71.60252147912979 64.24412178993225 87.38731679320335 69.8220887184143L123.73684361577034 79.48820489645004Q139.19285175204277 84.6390640437603 145.75394442677498 97.48397459089756Q152.3150371015072 110.32888513803482 152.3150371015072 137.89157527685165V1279.4016217887402Q152.3150371015072 1300.011836796999 145.90739405155182 1309.0940636694431Q139.49975100159645 1318.1762905418873 125.73189097642899 1320.6508621573448L82.88706913590431 1324.1152624189854Q68.42600956559181 1327.579662680626 62.104800418019295 1335.3237269073725Q55.78359127044678 1343.067791134119 55.78359127044678 1355.0050737857819Q55.78359127044678 1369.0745621025562 63.927668273448944 1377.308473855257Q72.07174527645111 1385.5423856079578 93.0701096355915 1393.347485870123L345.4435046315193 1476.0958686470985Q378.56215304136276 1488.2992663383484 396.97660130262375 1493.1204566061497Q415.39104956388474 1497.941646873951 430.04187446832657 1497.941646873951Q457.7706930935383 1497.941646873951 471.5732333958149 1483.1060551553965Q485.3757736980915 1468.270463436842 485.3757736980915 1445.053471148014Z"/>
</svg>