<svg xmlns="http://www.w3.org/2000/svg" viewBox="0 0 512 512" role="img" aria-label="LocalUpdate icon">
  <rect width="512" height="512" fill="#2036B1"/>
  <path fill="#FFFFFF" d="M348.74 278.61Q348.74 311.93 337.15 331.21Q325.55 350.48 304.69 358.45Q283.82 366.42 256 366.42Q221.22 366.42 200.94 355.70Q180.65 344.97 171.95 323.96Q163.26 302.95 163.26 272.81L163.26 155.15Q163.26 148.48 168.77 148.48L223.83 148.48Q229.05 148.48 229.05 154.57L229.05 279.76Q229.05 301.79 237.60 311.06Q246.15 320.34 260.93 320.34Q269.91 320.34 277.59 316.72Q285.27 313.09 289.91 303.96Q294.54 294.83 294.54 278.90L294.54 155.15Q294.54 148.48 300.05 148.48L343.52 148.48Q348.74 148.48 348.74 154.57"/>
</svg>
