<svg xmlns="http://www.w3.org/2000/svg" viewBox="-2 -92.20 825.60 114.20" role="img" aria-label="LocalUpdate">
  <path fill="#FCFCFA" d="M5.20-71.90Q5.20-74.20 7.10-74.20L26.10-74.20Q27.90-74.20 27.90-72.10L27.90-17.80Q27.90-16.40 29.10-16.40L59.20-16.40Q61.50-16.40 61.50-14.50L61.50-2.20Q61.50-1.30 60.90-0.65Q60.30 0 59 0L7.90 0Q6.30 0 5.75-0.60Q5.20-1.20 5.20-2.50L5.20-71.90M95.40 1Q84.40 1 76.30-3.65Q68.20-8.30 63.80-16.85Q59.40-25.40 59.40-36.90Q59.40-48.50 63.90-57.10Q68.40-65.70 76.50-70.45Q84.60-75.20 95.40-75.20Q106.20-75.20 114.25-70.45Q122.30-65.70 126.75-57.10Q131.20-48.50 131.20-36.90Q131.20-25.40 126.80-16.90Q122.40-8.40 114.35-3.70Q106.30 1 95.40 1M95.40-14.60Q101.90-14.60 104.65-19.60Q107.40-24.60 107.40-36.60Q107.40-49 104.60-54.40Q101.80-59.80 95.40-59.80Q88.90-59.80 86.05-54.40Q83.20-49 83.20-36.60Q83.20-24.60 85.95-19.60Q88.70-14.60 95.40-14.60M170.80-75.20Q177.10-75.20 182.45-73.50Q187.80-71.80 191.95-68.70Q196.10-65.60 198.75-61.40Q201.40-57.20 202.40-52.20Q202.90-50.10 202.55-49.50Q202.20-48.90 201.10-48.70L183.60-47.60Q182.50-47.60 182.20-48.05Q181.90-48.50 181.70-49.50Q180.90-53.90 178.65-56.85Q176.40-59.80 171.40-59.80Q165.80-59.80 162.45-54.85Q159.10-49.90 159.10-37.70Q159.10-25.30 162.15-20.35Q165.20-15.40 171.30-15.40Q176.30-15.40 180.15-17.95Q184-20.50 186.60-27.10Q187.10-28.30 189.40-27.90L201.90-25.40Q202.40-25.30 203-24.70Q203.60-24.10 203.30-22.10Q203-20.50 201.70-17.70Q200.40-14.90 198-11.65Q195.60-8.40 191.80-5.55Q188-2.70 182.75-0.85Q177.50 1 170.60 1Q159.90 1 151.95-4.05Q144-9.10 139.65-17.95Q135.30-26.80 135.30-38.10Q135.30-49.40 139.65-57.70Q144-66 152-70.60Q160-75.20 170.80-75.20M205.30 0Q204.20 0 203.70-1.05Q203.20-2.10 203.80-3.70L228-71.90Q228.50-73.10 229.10-73.65Q229.70-74.20 231-74.20L250.70-74.20Q253.30-74.20 254.30-71.50L278.30-3.40Q278.70-2.40 278.35-1.20Q278 0 276.90 0L257.30 0Q255.60 0 255.10-1.70L251.20-13.20Q251-13.70 250.75-14.05Q250.50-14.40 249.70-14.40L228.50-14.40Q227.30-14.40 227-13.30L222.90-1.50Q222.70-0.90 222.15-0.45Q221.60 0 220.50 0L205.30 0M233.30-31.40L244.70-31.40Q246.20-31.40 245.60-33.40L239.60-50.50Q239.40-51 239-51Q238.60-51 238.40-50.50L232.30-33.50Q231.50-31.40 233.30-31.40M284.10-71.90Q284.10-74.20 286-74.20L305-74.20Q306.80-74.20 306.80-72.10L306.80-17.80Q306.80-16.40 308-16.40L338.10-16.40Q340.40-16.40 340.40-14.50L340.40-2.20Q340.40-1.30 339.80-0.65Q339.20 0 337.90 0L286.80 0Q285.20 0 284.65-0.60Q284.10-1.20 284.10-2.50"/>
  <rect x="358.20" y="-90.20" width="463.40" height="110.20" fill="#93A8FF"/>
  <path fill="#111411" d="M452.60-29.30Q452.60-17.80 448.60-11.15Q444.60-4.50 437.40-1.75Q430.20 1 420.60 1Q408.60 1 401.60-2.70Q394.60-6.40 391.60-13.65Q388.60-20.90 388.60-31.30L388.60-71.90Q388.60-74.20 390.50-74.20L409.50-74.20Q411.30-74.20 411.30-72.10L411.30-28.90Q411.30-21.30 414.25-18.10Q417.20-14.90 422.30-14.90Q425.40-14.90 428.05-16.15Q430.70-17.40 432.30-20.55Q433.90-23.70 433.90-29.20L433.90-71.90Q433.90-74.20 435.80-74.20L450.80-74.20Q452.60-74.20 452.60-72.10L452.60-29.30M525.30-50.10Q525.30-42.80 521.80-37.55Q518.30-32.30 512.15-29.45Q506-26.60 497.80-26.60L484.10-26.60Q482.90-26.60 482.90-25.50L482.90-2.90Q482.90 0 479.60 0L462.80 0Q461.30 0 460.75-0.60Q460.20-1.20 460.20-2.50L460.20-71.90Q460.20-74.20 462.10-74.20L495.20-74.20Q503.40-74.20 510.25-71.55Q517.10-68.90 521.20-63.55Q525.30-58.20 525.30-50.10M502.10-50.40Q502.10-52.80 501-54.55Q499.90-56.30 498-57.25Q496.10-58.20 493.80-58.20L485.20-58.20Q482.90-58.20 482.90-56.10L482.90-44.80Q482.90-42.60 484.60-42.60L494.40-42.60Q498-42.60 500.05-44.90Q502.10-47.20 502.10-50.40M560.50 0L534.20 0Q531.30 0 531.30-3L531.30-71.70Q531.30-73.10 531.90-73.65Q532.50-74.20 534-74.20Q536.50-74.20 540.10-74.20Q543.70-74.20 547.60-74.20Q551.50-74.20 554.95-74.20Q558.40-74.20 560.60-74.10Q574-73.70 582.75-68.90Q591.50-64.10 595.80-55.95Q600.10-47.80 600.10-37.20Q600.10-26.50 595.70-18.05Q591.30-9.60 582.50-4.80Q573.70 0 560.50 0M555.40-15.70L556.10-15.70Q562.40-15.70 566.90-17.80Q571.40-19.90 573.85-24.70Q576.30-29.50 576.30-37.40Q576.30-44.40 574.30-49.05Q572.30-53.70 568.10-56.10Q563.90-58.50 557.40-58.50L555-58.50Q554-58.50 554-57.10L554-17.20Q554-15.70 555.40-15.70M600.50 0Q599.40 0 598.90-1.05Q598.40-2.10 599-3.70L623.20-71.90Q623.70-73.10 624.30-73.65Q624.90-74.20 626.20-74.20L645.90-74.20Q648.50-74.20 649.50-71.50L673.50-3.40Q673.90-2.40 673.55-1.20Q673.20 0 672.10 0L652.50 0Q650.80 0 650.30-1.70L646.40-13.20Q646.20-13.70 645.95-14.05Q645.70-14.40 644.90-14.40L623.70-14.40Q622.50-14.40 622.20-13.30L618.10-1.50Q617.90-0.90 617.35-0.45Q616.80 0 615.70 0L600.50 0M628.50-31.40L639.90-31.40Q641.40-31.40 640.80-33.40L634.80-50.50Q634.60-51 634.20-51Q633.80-51 633.60-50.50L627.50-33.50Q626.70-31.40 628.50-31.40M664.90-60L664.90-71.90Q664.90-72.90 665.50-73.55Q666.10-74.20 667.40-74.20L727.20-74.20Q728.50-74.20 729.10-73.55Q729.70-72.90 729.70-71.90L729.70-60Q729.70-58.10 727.50-58.10L709.80-58.10Q708.60-58.10 708.60-57.10L708.60-2.20Q708.60 0 706.70 0L687.70 0Q685.90 0 685.90-2L685.90-56.70Q685.90-58.10 684.80-58.10L667.20-58.10Q664.90-58.10 664.90-60M735.70-71.90Q735.70-74.20 737.60-74.20L791.60-74.20Q793.40-74.20 793.40-72.10L793.40-60.50Q793.40-57.80 790.80-57.80L760.70-57.80Q758.40-57.80 758.40-55.90L758.40-47.40Q758.40-45.30 760.20-45.30L778.20-45.30Q780.30-45.30 780.30-43.30L780.30-30.90Q780.30-30.20 779.90-29.70Q779.50-29.20 778.50-29.20L760-29.20Q758.40-29.20 758.40-27.80L758.40-17.80Q758.40-16.40 759.60-16.40L792.10-16.40Q794.30-16.40 794.30-14.50L794.30-2.20Q794.30-1.30 793.75-0.65Q793.20 0 791.90 0L738.40 0Q735.70 0 735.70-2.50"/>
</svg>
