<svg width="512" height="512" viewBox="0 0 512 512" fill="none" xmlns="http://www.w3.org/2000/svg">
<g id="baselocal-icon-terracotta">
<g id="BaseLocal Logo">
<path id="Vector" d="M345.319 392.598C320.471 409.635 290.426 419.653 258.096 419.653C225.766 419.653 195.721 409.635 170.873 392.598L135.078 433.772C169.613 459.053 212.141 474 258.096 474C304.05 474 346.579 459.053 381.114 433.772L345.319 392.598Z" fill="#C2604A"/>
<path id="Vector_2" d="M486.566 223.009C486.172 218.592 485.699 214.253 484.793 210.033C483.927 205.301 482.746 200.686 481.171 196.19C479.714 191.773 477.824 187.316 475.776 183.096C474.791 181.046 473.61 178.955 472.547 176.983L472.468 176.905C468.058 169.253 462.545 162.075 456.165 155.765L455.102 154.7L454.63 154.306C452.976 152.649 451.401 151.151 449.904 149.889C447.463 147.72 444.903 145.55 442.265 143.578C425.765 131.471 406.234 124.214 385.915 122.833C382.961 122.518 379.811 122.439 376.897 122.518C373.865 122.518 370.793 122.715 367.879 122.991C364.847 123.188 361.776 123.701 358.94 124.174C342.362 127.132 326.65 134.113 313.301 144.131L312.828 144.407C312.12 144.998 311.371 145.59 310.584 146.181L309.324 147.246C303.614 151.861 298.219 157.264 293.533 163.061L292.47 164.442C291.682 165.309 291.013 166.217 290.304 167.202C259.668 207.904 262.03 265.524 296.014 304.056C297.865 306.225 299.834 308.276 301.921 310.248C308.221 316.637 315.27 322.238 323.027 326.576V326.655C339.33 336.199 357.877 341.129 378.393 341.208C384.103 341.208 416.196 341.011 443.368 340.932H448.29C453.685 340.814 458.804 340.814 463.411 340.814H466.049C470.184 340.735 473.807 340.735 476.563 340.735C479.32 340.735 481.879 339.551 483.612 337.698C485.463 335.844 486.644 333.36 486.644 330.52C486.762 328.075 486.762 324.92 486.762 321.488V318.846C486.762 315.02 486.841 310.8 486.841 306.462V301.532C486.92 291.988 486.92 282.168 486.92 274.083L486.999 262.29L486.723 222.969L486.566 223.009ZM377.763 287.137C347.284 287.137 322.594 262.409 322.594 231.883C322.594 201.357 347.284 176.628 377.763 176.628C408.242 176.628 432.932 201.357 432.932 231.883C432.932 262.409 408.242 287.137 377.763 287.137Z" fill="#C2604A"/>
<path id="Vector_3" d="M134.96 128.553C115.074 128.553 96.4478 133.995 80.3814 143.382V83.5525H26V237.72C26 297.904 74.8685 346.888 134.96 346.888C195.051 346.888 243.959 297.944 243.959 237.72C243.959 177.497 195.09 128.553 134.96 128.553ZM134.96 292.54C104.796 292.54 80.2239 267.97 80.2239 237.72H80.3814V234.644C81.996 205.853 105.82 182.9 134.96 182.9C164.1 182.9 189.696 207.47 189.696 237.72C189.696 267.97 165.163 292.54 134.96 292.54Z" fill="#C2604A"/>
<path id="Vector_4" d="M125.429 38H80.2227V83.2761H125.429V38Z" fill="#C2604A"/>
</g>
</g>
</svg>
