<svg width="420" height="120" viewBox="0 0 420 120" fill="none" xmlns="http://www.w3.org/2000/svg">
<g id="baselocal-full-dark">
<g id="BaseLocal Logo">
<g id="Group">
<path id="Vector" d="M224.652 68.4124V24.2886H213.793V78.9548H242.335V68.4124H224.652Z" fill="#2C2421"/>
<path id="Vector_2" d="M269.734 34.1641C276.054 34.1641 281.438 36.411 285.88 40.8885C290.321 45.3741 292.541 50.8285 292.541 57.2436C292.541 63.6586 290.28 69.1049 285.749 73.558C281.219 78.011 275.736 80.2417 269.302 80.2417C262.868 80.2417 257.622 77.9703 253.067 73.4277C248.512 68.8851 246.234 63.4877 246.234 57.2436C246.234 50.9995 248.512 45.366 253.067 40.8885C257.622 36.4028 263.178 34.1641 269.734 34.1641ZM269.302 44.3565C267.676 44.3565 266.049 44.7066 264.43 45.3985C262.803 46.0905 261.437 47.043 260.339 48.256C259.119 49.469 258.224 50.8367 257.638 52.3672C257.061 53.8976 256.768 55.5258 256.768 57.2517C256.768 60.7686 257.972 63.7807 260.379 66.2963C262.787 68.8037 265.764 70.0574 269.302 70.0574C272.841 70.0574 275.989 68.8281 278.396 66.3777C280.804 63.9273 282.008 60.8826 282.008 57.2517C282.008 53.6209 280.788 50.5599 278.356 48.0769C275.915 45.5939 272.898 44.3565 269.302 44.3565Z" fill="#2C2421"/>
<path id="Vector_3" d="M330.147 64.8322H341.901C340.51 69.3911 337.793 73.1034 333.759 75.9608C329.724 78.8183 325.242 80.2511 320.313 80.2511C317.352 80.2511 314.465 79.6731 311.65 78.5171C308.836 77.3611 306.298 75.7247 304.037 73.6162C301.776 71.5078 300.043 69.0003 298.856 66.1103C297.668 63.2203 297.074 60.1267 297.074 56.8297C297.074 50.5205 299.335 45.1719 303.866 40.7758C308.389 36.3797 313.879 34.1816 320.313 34.1816C325.185 34.1816 329.684 35.6551 333.808 38.6022C337.923 41.5492 340.624 45.3347 341.901 49.9506H330.147C327.886 46.2383 324.543 44.3741 320.134 44.3741C316.36 44.3741 313.326 45.5708 311.04 47.9642C308.747 50.3576 307.6 53.3698 307.6 57.0088C307.6 60.6478 308.82 63.8716 311.252 66.3546C313.692 68.8375 316.791 70.075 320.565 70.075C322.477 70.075 324.291 69.5865 326.007 68.6177C327.715 67.649 329.098 66.3953 330.139 64.8485L330.147 64.8322Z" fill="#2C2421"/>
<path id="Vector_4" d="M393.86 35.4666V78.9391H384.286V73.0125C382.659 75.1943 380.455 76.9446 377.673 78.2634C374.891 79.5822 372.134 80.2417 369.401 80.2417C366.033 80.2417 363.015 79.623 360.347 78.3774C357.679 77.1318 355.353 75.3245 353.385 72.9555C349.732 68.6734 347.902 63.4062 347.902 57.1622C347.902 53.9221 348.325 51.1053 349.163 48.7037C350.001 46.3022 351.481 43.9006 353.604 41.499C355.719 39.0975 358.135 37.2739 360.827 36.0283C363.528 34.7828 366.472 34.1641 369.661 34.1641C375.867 34.1641 380.739 36.6308 384.286 41.5723V35.4747H393.86V35.4666ZM383.936 57.1622C383.936 53.5313 382.765 50.4866 380.414 48.0362C378.063 45.5858 375.119 44.3565 371.581 44.3565H371.141C367.489 44.3565 364.455 45.6102 362.047 48.1176C359.64 50.625 358.436 53.7837 358.436 57.5936C358.436 61.0535 359.68 63.9924 362.178 66.4184C364.675 68.8444 367.692 70.0492 371.231 70.0492C375.005 70.0492 378.063 68.82 380.414 66.3695C382.765 63.9191 383.936 60.85 383.936 57.154V57.1622Z" fill="#2C2421"/>
<path id="Vector_5" d="M402.465 24.2886V78.9548H412.998V24.2886H402.465Z" fill="#2C2421"/>
</g>
<g id="Group 7">
<path id="Vector_6" d="M149.258 45.57H135.796C135.568 44.4872 134.95 43.6731 133.958 43.1358C132.957 42.5903 131.77 42.3217 130.395 42.3217C128.858 42.3217 127.573 42.6392 126.54 43.266C125.507 43.8929 124.986 44.8047 124.986 46.0014C124.986 47.3203 125.905 48.3379 127.752 49.0544C128.598 49.4126 130.281 49.8603 132.811 50.3976C140.327 52.1887 145.182 54.11 147.37 56.1452C149.558 58.1805 150.648 60.7775 150.648 63.9525C150.648 68.3813 148.729 72.0041 144.898 74.8127C140.676 77.9226 135.69 79.4776 129.94 79.4776C124.189 79.4776 119.105 78.0203 115.152 75.1058C111.199 72.1913 109.223 68.4464 109.223 63.8793H123.376C123.677 65.3854 124.466 66.5984 125.734 67.5346C127.003 68.4708 128.63 68.9349 130.623 68.9349C132.307 68.9349 133.787 68.5604 135.056 67.8114C136.325 67.0624 136.951 65.9715 136.951 64.5387C136.951 62.9837 135.804 61.6975 133.502 60.6798C132.502 60.2646 130.436 59.6378 127.288 58.7992C124.604 58.2049 122.757 57.7246 121.765 57.3664C120.228 56.8291 118.617 55.9906 116.934 54.8508C113.176 52.4573 111.297 49.3474 111.297 45.5211C111.297 41.6948 113.176 38.2186 116.934 35.646C120.691 33.0734 125.255 31.7871 130.623 31.7871C135.454 31.7871 139.773 33.1222 143.572 35.8007C147.37 38.4791 149.266 41.7355 149.266 45.5862L149.258 45.57Z" fill="#2C2421"/>
<path id="Vector_7" d="M202.978 60.4517H168.108C168.946 63.008 170.434 65.0596 172.565 66.6064C174.696 68.1532 177.145 68.9266 179.91 68.9266C181.952 68.9266 183.871 68.5928 185.677 67.9171C187.483 67.2414 188.923 66.3214 190.004 65.141H201.896C200.513 69.1464 197.748 72.5331 193.608 75.3092C189.459 78.0853 185.018 79.4774 180.276 79.4774C173.794 79.4774 168.222 77.1898 163.561 72.6064C158.909 68.0229 156.574 62.4381 156.574 55.852C156.574 49.2659 158.868 43.5264 163.464 38.829C168.059 34.1316 173.72 31.7788 180.447 31.7788C186.751 31.7788 192.176 34.099 196.707 38.7476C201.245 43.388 203.507 48.8914 203.507 55.2414C203.507 56.023 203.45 56.8778 203.328 57.8059C203.206 58.7339 203.084 59.6213 202.97 60.4599L202.978 60.4517ZM167.937 50.8045H192.624C191.721 48.1912 190.175 46.1234 187.987 44.601C185.791 43.0868 183.286 42.3215 180.463 42.3215C177.641 42.3215 175.119 43.1112 172.712 44.6824C170.312 46.2618 168.718 48.2971 167.937 50.7964V50.8045Z" fill="#2C2421"/>
<path id="Vector_8" d="M72.954 88.197C67.8216 91.714 61.6154 93.7818 54.9375 93.7818C48.2596 93.7818 42.0535 91.714 36.921 88.197L29.5273 96.6963C36.6607 101.915 45.4453 105 54.9375 105C64.4297 105 73.2143 101.915 80.3477 96.6963L72.954 88.197Z" fill="#2C2421"/>
<path id="Vector_9" d="M102.131 53.1898C102.049 52.278 101.952 51.3825 101.765 50.5114C101.586 49.5344 101.342 48.5819 101.016 47.6538C100.715 46.742 100.325 45.8221 99.9019 44.951C99.6986 44.5277 99.4546 44.0962 99.235 43.6891L99.2187 43.6729C98.3077 42.0935 97.169 40.6118 95.8513 39.3092L95.6317 39.0894L95.534 39.008C95.1924 38.6661 94.8671 38.3567 94.558 38.0962C94.0537 37.6485 93.525 37.2007 92.98 36.7936C89.5719 34.2943 85.5375 32.7964 81.3405 32.5114C80.7304 32.4463 80.0797 32.43 79.4778 32.4463C78.8515 32.4463 78.2171 32.487 77.6151 32.544C76.9888 32.5847 76.3544 32.6905 75.7688 32.7882C72.3444 33.3988 69.099 34.8398 66.3416 36.9076L66.244 36.9646C66.0976 37.0867 65.9431 37.2088 65.7804 37.331L65.5201 37.5508C64.3407 38.5033 63.2263 39.6186 62.2584 40.8153L62.0388 41.1003C61.8761 41.2794 61.7379 41.4666 61.5914 41.6701C55.2633 50.0717 55.7513 61.9659 62.7708 69.9197C63.1531 70.3675 63.5598 70.7908 63.9909 71.1979C65.2923 72.5167 66.7483 73.6728 68.3507 74.5683V74.5846C71.7181 76.5547 75.5491 77.5723 79.7869 77.5886C80.9663 77.5886 87.5954 77.5479 93.2078 77.5316H94.2245C95.3388 77.5072 96.3962 77.5072 97.3479 77.5072H97.8929C98.7469 77.4909 99.4952 77.4909 100.065 77.4909C100.634 77.4909 101.163 77.2467 101.521 76.8641C101.903 76.4814 102.147 75.9685 102.147 75.3824C102.171 74.8776 102.171 74.2263 102.171 73.5181V72.9726C102.171 72.1829 102.188 71.3118 102.188 70.4163V69.3987C102.204 67.4285 102.204 65.4014 102.204 63.7325L102.22 61.2983L102.163 53.1816L102.131 53.1898ZM79.6567 66.4272C73.3611 66.4272 68.2612 61.3227 68.2612 55.0215C68.2612 48.7203 73.3611 43.6159 79.6567 43.6159C85.9524 43.6159 91.0523 48.7203 91.0523 55.0215C91.0523 61.3227 85.9524 66.4272 79.6567 66.4272Z" fill="#2C2421"/>
<path id="Vector_10" d="M29.5064 33.6918C25.3988 33.6918 21.5515 34.8153 18.2329 36.7529V24.4028H7V56.2263C7 68.6496 17.0941 78.7608 29.5064 78.7608C41.9187 78.7608 52.0209 68.6578 52.0209 56.2263C52.0209 43.7949 41.9268 33.6918 29.5064 33.6918ZM29.5064 67.5424C23.2759 67.5424 18.2003 62.4705 18.2003 56.2263H18.2329V55.5913C18.5664 49.6483 23.4873 44.9102 29.5064 44.9102C35.5255 44.9102 40.8125 49.9821 40.8125 56.2263C40.8125 62.4705 35.7451 67.5424 29.5064 67.5424Z" fill="#2C2421"/>
<path id="Vector_11" d="M27.533 15H18.1953V24.346H27.533V15Z" fill="#2C2421"/>
</g>
</g>
</g>
</svg>
