<svg xmlns="http://www.w3.org/2000/svg" viewBox="0 0 1101 181" width="1101" height="181">
<rect x="0" y="0" width="1101" height="3.4" fill="#20262C"/>
<rect x="0" y="177.40" width="1101" height="3.4" fill="#20262C"/>
<path transform="translate(103.00,125.40) scale(0.100000,-0.100000)" d="M557 578H353V0H216V578H11V700H557Z" fill="#20262C"/>
<path transform="translate(181.80,125.40) scale(0.100000,-0.100000)" d="M38 350Q38 525 115.0 619.5Q192 714 335 714Q410 714 466.0 688.0Q522 662 559.0 614.0Q596 566 614.0 499.0Q632 432 632 350Q632 175 554.5 80.5Q477 -14 335 -14Q259 -14 203.0 12.0Q147 38 110.5 86.0Q74 134 56.0 201.0Q38 268 38 350ZM182 350Q182 297 191.0 252.5Q200 208 218.5 176.0Q237 144 266.0 126.0Q295 108 335 108Q408 108 448.0 165.0Q488 222 488 350Q488 401 479.5 445.0Q471 489 453.0 522.0Q435 555 406.0 573.5Q377 592 335 592Q262 592 222.0 533.5Q182 475 182 350Z" fill="#20262C"/>
<path transform="translate(270.80,125.40) scale(0.100000,-0.100000)" d="M60 693Q102 701 152.5 705.5Q203 710 253 710Q305 710 357.5 701.5Q410 693 452.0 667.5Q494 642 520.5 596.5Q547 551 547 478Q547 412 524.0 366.5Q501 321 463.0 292.0Q425 263 376.5 250.0Q328 237 276 237Q271 237 260.0 237.0Q249 237 237.0 237.5Q225 238 213.5 239.0Q202 240 197 241V0H60ZM264 592Q244 592 226.0 590.5Q208 589 197 587V360Q201 359 209.0 358.0Q217 357 226.0 356.5Q235 356 243.5 356.0Q252 356 256 356Q283 356 309.5 361.0Q336 366 357.0 379.5Q378 393 390.5 417.0Q403 441 403 480Q403 513 391.0 534.5Q379 556 359.5 569.0Q340 582 315.0 587.0Q290 592 264 592Z" fill="#20262C"/>
<path transform="translate(397.30,125.40) scale(0.100000,-0.100000)" d="M101 110H240V505L255 573L207 514L118 453L63 528L291 712H364V110H500V0H101Z" fill="#20262C"/>
<path transform="translate(476.00,125.40) scale(0.100000,-0.100000)" d="M40 351Q40 535 103.0 624.5Q166 714 284 714Q410 714 469.0 625.5Q528 537 528 351Q528 166 464.5 76.0Q401 -14 283 -14Q158 -14 99.0 80.5Q40 175 40 351ZM170 351Q170 229 196.5 162.5Q223 96 284 96Q343 96 370.5 157.0Q398 218 398 351Q398 472 372.0 538.0Q346 604 283 604Q223 604 196.5 542.0Q170 480 170 351Z" fill="#20262C"/>
<path transform="translate(602.00,125.40) scale(0.100000,-0.100000)" d="M557 578H353V0H216V578H11V700H557Z" fill="#20262C"/>
<path transform="translate(680.80,125.40) scale(0.100000,-0.100000)" d="M38 350Q38 525 115.0 619.5Q192 714 335 714Q410 714 466.0 688.0Q522 662 559.0 614.0Q596 566 614.0 499.0Q632 432 632 350Q632 175 554.5 80.5Q477 -14 335 -14Q259 -14 203.0 12.0Q147 38 110.5 86.0Q74 134 56.0 201.0Q38 268 38 350ZM182 350Q182 297 191.0 252.5Q200 208 218.5 176.0Q237 144 266.0 126.0Q295 108 335 108Q408 108 448.0 165.0Q488 222 488 350Q488 401 479.5 445.0Q471 489 453.0 522.0Q435 555 406.0 573.5Q377 592 335 592Q262 592 222.0 533.5Q182 475 182 350Z" fill="#20262C"/>
<path transform="translate(769.80,125.40) scale(0.100000,-0.100000)" d="M60 700Q81 703 107.5 705.0Q134 707 162.0 708.0Q190 709 216.5 709.5Q243 710 264 710Q357 710 423.0 684.0Q489 658 530.0 611.0Q571 564 590.0 499.0Q609 434 609 356Q609 285 591.0 219.0Q573 153 531.0 102.0Q489 51 420.5 20.0Q352 -11 251 -11Q235 -11 208.5 -10.0Q182 -9 153.5 -7.5Q125 -6 99.0 -4.5Q73 -3 60 -1ZM275 588Q253 588 230.5 587.0Q208 586 197 584V115Q201 114 210.5 113.5Q220 113 231.0 112.5Q242 112 252.0 111.5Q262 111 267 111Q325 111 363.5 131.5Q402 152 424.5 186.0Q447 220 456.0 264.5Q465 309 465 356Q465 397 457.0 438.5Q449 480 427.5 513.0Q406 546 369.0 567.0Q332 588 275 588Z" fill="#20262C"/>
<path transform="translate(856.50,125.40) scale(0.100000,-0.100000)" d="M405 155H190L137 0H0L252 705H353L605 0H461ZM225 265H375L323 421L302 531H297L276 420Z" fill="#20262C"/>
<path transform="translate(939.00,125.40) scale(0.100000,-0.100000)" d="M228 260 -2 700H161L289 437L303 363H308L323 439L447 700H594L365 261V0H228Z" fill="#20262C"/>
</svg>