<svg xmlns="http://www.w3.org/2000/svg" viewBox="0 0 221 333" width="221" height="333" role="img" aria-label="Top10Today">
<path transform="translate(55.44,32.03) scale(0.018000,-0.018000)" fill="#FFFFFF" d="M457.34375 0V1144.9375H33.90625V1446H1219.3125V1144.9375H798.75V0Z"/>
<path transform="translate(95.99,32.03) scale(0.018000,-0.018000)" fill="#FFFFFF" d="M774.96875 -20Q565.125 -20 411.53125 70.40625Q257.9375 160.8125 174.203125 326.65625Q90.46875 492.5 90.46875 720Q90.46875 948.65625 175.46875 1115.921875Q260.46875 1283.1875 414.484375 1374.59375Q568.5 1466 774.96875 1466Q980.59375 1466 1133.53125 1374.671875Q1286.46875 1283.34375 1370.8125 1116.078125Q1455.15625 948.8125 1455.15625 720Q1455.15625 493.34375 1372.078125 327.15625Q1289 160.96875 1136.0625 70.484375Q983.125 -20 774.96875 -20ZM774.96875 256.0625Q867.78125 256.0625 937.78125 301.484375Q1007.78125 346.90625 1046.5625 447.84375Q1085.34375 548.78125 1085.34375 714.9375Q1085.34375 885.78125 1046.40625 990.171875Q1007.46875 1094.5625 937.46875 1142.25Q867.46875 1189.9375 774.96875 1189.9375Q682.46875 1189.9375 612.234375 1142.171875Q542 1094.40625 502.40625 989.9375Q462.8125 885.46875 462.8125 714.9375Q462.8125 548.625 502.40625 447.765625Q542 346.90625 612.234375 301.484375Q682.46875 256.0625 774.96875 256.0625Z"/>
<path transform="translate(141.82,32.03) scale(0.018000,-0.018000)" fill="#FFFFFF" d="M148.28125 0V1446H700.59375Q859.34375 1446 986.125 1390.171875Q1112.90625 1334.34375 1186.578125 1226.640625Q1260.25 1118.9375 1260.25 963.8125Q1260.25 820.5 1196.859375 718.234375Q1133.46875 615.96875 1017.703125 561.359375Q901.9375 506.75 744.65625 506.75H489.9375V0ZM486.5625 764.875H734.53125Q826.34375 764.875 885.8125 829.65625Q945.28125 894.4375 945.28125 981.625Q945.28125 1073.03125 881.703125 1131.453125Q818.125 1189.875 732.34375 1189.875H486.5625Z"/>
<circle cx="110.50" cy="166.53" r="100.00" fill="none" stroke="#64E3BC" stroke-width="9.0"/>
<path transform="translate(58.77,199.78) scale(0.095000,-0.095000)" fill="#64E3BC" d="M127 674 17 660 15 680 241 711H322V19H400V0H22V19H127Z"/>
<path transform="translate(99.15,199.78) scale(0.095000,-0.095000)" fill="#64E3BC" d="M326.5 -10.0Q181 -10 105.5 88.0Q30 186 30.0 362.0Q30 538 111.0 624.5Q192 711 332.5 711.0Q473 711 553.5 625.0Q634 539 634.0 351.0Q634 163 553.0 76.5Q472 -10 326.5 -10.0ZM235 388V299Q235 202 236.5 162.0Q238 122 247.0 79.0Q256 36 276.0 23.5Q296 11 323.0 11.0Q350 11 363.5 14.0Q377 17 387.5 26.5Q398 36 405.0 45.5Q412 55 416.5 75.0Q421 95 424.0 112.0Q427 129 428 162Q430 226 430 291V379Q430 575 415.5 632.5Q401 690 333.0 690.0Q265 690 250.0 631.0Q235 572 235 388Z"/>
<path transform="translate(10.43,327.06) scale(0.018000,-0.018000)" fill="#FFFFFF" d="M457.34375 0V1144.9375H33.90625V1446H1219.3125V1144.9375H798.75V0Z"/>
<path transform="translate(50.98,327.06) scale(0.018000,-0.018000)" fill="#FFFFFF" d="M774.96875 -20Q565.125 -20 411.53125 70.40625Q257.9375 160.8125 174.203125 326.65625Q90.46875 492.5 90.46875 720Q90.46875 948.65625 175.46875 1115.921875Q260.46875 1283.1875 414.484375 1374.59375Q568.5 1466 774.96875 1466Q980.59375 1466 1133.53125 1374.671875Q1286.46875 1283.34375 1370.8125 1116.078125Q1455.15625 948.8125 1455.15625 720Q1455.15625 493.34375 1372.078125 327.15625Q1289 160.96875 1136.0625 70.484375Q983.125 -20 774.96875 -20ZM774.96875 256.0625Q867.78125 256.0625 937.78125 301.484375Q1007.78125 346.90625 1046.5625 447.84375Q1085.34375 548.78125 1085.34375 714.9375Q1085.34375 885.78125 1046.40625 990.171875Q1007.46875 1094.5625 937.46875 1142.25Q867.46875 1189.9375 774.96875 1189.9375Q682.46875 1189.9375 612.234375 1142.171875Q542 1094.40625 502.40625 989.9375Q462.8125 885.46875 462.8125 714.9375Q462.8125 548.625 502.40625 447.765625Q542 346.90625 612.234375 301.484375Q682.46875 256.0625 774.96875 256.0625Z"/>
<path transform="translate(96.81,327.06) scale(0.018000,-0.018000)" fill="#FFFFFF" d="M148.28125 0V1446Q162.09375 1446 219.296875 1445.921875Q276.5 1445.84375 353.03125 1446.265625Q429.5625 1446.6875 503.703125 1446.1875Q577.84375 1445.6875 624.53125 1444Q886.625 1436.25 1052.203125 1345.75Q1217.78125 1255.25 1295.625 1097.40625Q1373.46875 939.5625 1373.46875 728.9375Q1373.46875 511.0625 1291.921875 346.953125Q1210.375 182.84375 1043.203125 91.421875Q876.03125 0 618.46875 0ZM489.9375 271H627.65625Q726.65625 271 815.65625 315.78125Q904.65625 360.5625 961.21875 461.984375Q1017.78125 563.40625 1017.78125 732.75Q1017.78125 883.875 970.109375 981.875Q922.4375 1079.875 835.015625 1127.4375Q747.59375 1175 629.53125 1175H489.9375Z"/>
<path transform="translate(141.16,327.06) scale(0.018000,-0.018000)" fill="#FFFFFF" d="M42.5 0 557.15625 1446H910.3125L1424.8125 0H1087.375L980.28125 307.5H491.78125L383 0ZM565.8125 601.0625H901.1875L734.34375 1119.46875Z"/>
<path transform="translate(185.57,327.06) scale(0.018000,-0.018000)" fill="#FFFFFF" d="M522.28125 0V605.4375L17.03125 1446H385.15625L694.59375 896.0625L1000.25 1446H1372.28125L863.375 605.125V0Z"/>
</svg>
