<svg xmlns="http://www.w3.org/2000/svg" viewBox="0 0 512 512" width="512" height="512">
<rect width="512" height="512" fill="#20262C"/>
<path transform="translate(131.37,331.60) scale(0.216000,-0.216000)" d="M101 110H240V505L255 573L207 514L118 453L63 528L291 712H364V110H500V0H101Z" fill="#FFFFFF"/>
<path transform="translate(258.16,331.60) scale(0.216000,-0.216000)" d="M40 351Q40 535 103.0 624.5Q166 714 284 714Q410 714 469.0 625.5Q528 537 528 351Q528 166 464.5 76.0Q401 -14 283 -14Q158 -14 99.0 80.5Q40 175 40 351ZM170 351Q170 229 196.5 162.5Q223 96 284 96Q343 96 370.5 157.0Q398 218 398 351Q398 472 372.0 538.0Q346 604 283 604Q223 604 196.5 542.0Q170 480 170 351Z" fill="#FFFFFF"/>
</svg>