<svg xmlns="http://www.w3.org/2000/svg" viewBox="0 0 209 209" width="209" height="209" role="img" aria-label="Top10Today">
<circle cx="104.5" cy="104.5" r="104.50" fill="#0C2F2A"/>
<circle cx="104.5" cy="104.5" r="81.5" fill="none" stroke="#64E3BC" stroke-width="8"/>
<path transform="translate(64.21,130.40) scale(0.074000,-0.074000)" fill="#64E3BC" d="M127 674 17 660 15 680 241 711H322V19H400V0H22V19H127Z"/>
<path transform="translate(95.66,130.40) scale(0.074000,-0.074000)" fill="#64E3BC" d="M326.5 -10.0Q181 -10 105.5 88.0Q30 186 30.0 362.0Q30 538 111.0 624.5Q192 711 332.5 711.0Q473 711 553.5 625.0Q634 539 634.0 351.0Q634 163 553.0 76.5Q472 -10 326.5 -10.0ZM235 388V299Q235 202 236.5 162.0Q238 122 247.0 79.0Q256 36 276.0 23.5Q296 11 323.0 11.0Q350 11 363.5 14.0Q377 17 387.5 26.5Q398 36 405.0 45.5Q412 55 416.5 75.0Q421 95 424.0 112.0Q427 129 428 162Q430 226 430 291V379Q430 575 415.5 632.5Q401 690 333.0 690.0Q265 690 250.0 631.0Q235 572 235 388Z"/>
</svg>
