<svg xmlns="http://www.w3.org/2000/svg" viewBox="-4.00 -85.00 993.90 88.00" role="img" aria-label="AmericanAdvisor">
  <path fill="#0E1A2B" d="M69.7 -9.8Q70.7 -7.4 71.8 -6.2Q72.9 -5 74.8 -4.5Q76.7 -4 80.5 -3.7L80.5 0L39.3 0L39.3 -3.7Q44.9 -3.9 47 -4.65Q49.1 -5.4 49.1 -7.4Q49.1 -9 48.2 -11.4L44.2 -22.2L21.7 -22.2L18.8 -14.6Q17.7 -11.6 17.7 -9.9Q17.7 -7.4 20.25 -6Q22.8 -4.6 29 -3.7L29 0L-2 0L-2 -3.7Q2.9 -4.5 5.2 -5.5Q7.5 -6.5 8.85 -8.45Q10.2 -10.4 11.9 -14.8L30.8 -63L26.2 -73.3L41.1 -79L69.7 -9.8ZM42.1 -27.9L33.4 -51.6L33 -51.6L23.9 -27.9ZM175.7 -3.5L175.7 0L146.2 0L146.2 -3.5L153.2 -5.5L153.2 -27.9Q153.2 -33.3 153 -35.85Q152.8 -38.4 152.2 -39.9Q150.2 -45.1 143.3 -45.1Q138.7 -45.1 135.4 -41.6Q135.7 -38.5 135.7 -31.8L135.7 -5.5L142.7 -3.5L142.7 0L113.2 0L113.2 -3.5L120.2 -5.5L120.2 -27.9Q120.2 -33.3 120 -35.85Q119.8 -38.4 119.2 -39.9Q117.2 -45.2 110.3 -45.2Q105.9 -45.2 102.7 -42.1L102.7 -5.5L109.7 -3.5L109.7 0L79.7 0L79.7 -3.5L87.2 -5.5L87.2 -44L79.9 -46.8L79.9 -49.1L98.3 -54L102.3 -54L102.3 -47.5Q105.9 -50.5 110.7 -52.25Q115.5 -54 120 -54Q130.1 -54 134 -46.3Q137.6 -49.8 142.8 -51.9Q148 -54 153 -54Q163.3 -54 167.2 -46Q168.1 -44.1 168.4 -41.35Q168.7 -38.6 168.7 -31.8L168.7 -5.5ZM233.5 -29L197.1 -29Q197.2 -19 201.1 -14.15Q205 -9.3 212.8 -9.3Q217.4 -9.3 221.85 -11Q226.3 -12.7 229.1 -15.9L229.8 -16.7L232.6 -14.3L232.1 -13.1Q229.4 -6.5 222.85 -2.75Q216.3 1 208 1Q199.8 1 193.55 -2.35Q187.3 -5.7 183.9 -11.75Q180.5 -17.8 180.5 -25.7Q180.5 -34 184.3 -40.45Q188.1 -46.9 194.9 -50.45Q201.7 -54 210.5 -54Q221.9 -54 227.9 -47.8Q233.9 -41.6 234.3 -29.6ZM217.7 -34.5Q218.1 -35.7 218.1 -38.3Q218.1 -43.5 215.8 -46.2Q213.5 -48.9 209.2 -48.9Q204.1 -48.9 201.05 -45Q198 -41.1 197.3 -33.8L217.7 -34.5ZM276.5 -54.1Q280.2 -54.1 282.7 -52Q285.2 -49.9 285.2 -46.7Q285.2 -43.7 283.4 -41.65Q281.6 -39.6 279 -39.6Q276.3 -39.6 274.1 -41.5Q272.6 -42.8 271.45 -43.35Q270.3 -43.9 269.1 -43.9Q266.3 -43.9 264.4 -41.4Q262.9 -39.5 262.55 -38.8Q262.2 -38.1 262.1 -37.65Q262 -37.2 262 -37L262 -5.5L275.1 -3.5L275.1 0L239 0L239 -3.5L246.5 -5.5L246.5 -44L238.9 -46.8L238.9 -49.2L259.4 -54L261.5 -54L261.5 -45Q265.3 -49.4 269.15 -51.75Q273 -54.1 276.5 -54.1ZM294.6 -69.7Q294.6 -73.1 296.95 -75.55Q299.3 -78 303.2 -78Q307.2 -78 309.65 -75.55Q312.1 -73.1 312.1 -69.7Q312.1 -66.4 309.75 -63.95Q307.4 -61.5 303.2 -61.5Q299.2 -61.5 296.9 -63.95Q294.6 -66.4 294.6 -69.7ZM319.1 0L287.1 0L287.1 -3.5L295.6 -5.5L295.6 -44.1L287.1 -46.8L287.1 -49.2L309 -54L311.1 -54L311.1 -5.5L319.1 -3.5ZM350.2 1Q342.5 1 336.35 -2.45Q330.2 -5.9 326.75 -12Q323.3 -18.1 323.3 -25.8Q323.3 -33.9 327.1 -40.35Q330.9 -46.8 337.65 -50.4Q344.4 -54 352.9 -54Q358.9 -54 363.7 -52.25Q368.5 -50.5 371.25 -47.45Q374 -44.4 374 -40.7Q374 -37.6 372.2 -35.8Q370.4 -34 367.3 -34Q363.9 -34 362.5 -35.85Q361.1 -37.7 360.7 -40.5Q360.2 -44.6 358.65 -46.7Q357.1 -48.8 353.4 -48.8Q347.1 -48.8 343.6 -43.6Q340.1 -38.4 340.1 -28.9Q340.1 -19.3 343.85 -14.3Q347.6 -9.3 355 -9.3Q364.1 -9.3 369.8 -15.9L370.5 -16.7L373.3 -14.5L372.8 -13.3Q369.8 -6.2 364.1 -2.6Q358.4 1 350.2 1ZM392.8 1Q386.6 1 383.1 -2.15Q379.6 -5.3 379.6 -10.8Q379.6 -18.3 386.7 -22.8Q393.8 -27.3 408.9 -29.4L408.9 -36.7Q408.9 -41.4 408.35 -43.8Q407.8 -46.2 406.55 -47.2Q405.3 -48.2 402.8 -48.2Q399 -48.2 396.85 -46.35Q394.7 -44.5 394.7 -41.4Q394.7 -40.7 394.9 -39.1Q395.1 -37.7 395.1 -37Q395.1 -34.2 393.1 -32.25Q391.1 -30.3 388.2 -30.3Q385.3 -30.3 383.45 -32.2Q381.6 -34.1 381.6 -37.1Q381.6 -40.3 383.7 -43.4Q385.8 -46.5 389.5 -49Q397.2 -54 408.4 -54Q418.8 -54 422.1 -49Q423.3 -47.1 423.85 -44.05Q424.4 -41 424.4 -35.6L424.4 -15Q424.4 -10.6 425.3 -8.6Q426.2 -6.6 428.2 -6.6Q430.5 -6.6 432.6 -9L434.9 -5.7Q431.7 -2.3 428.15 -0.65Q424.6 1 420.3 1Q415.5 1 412.95 -0.95Q410.4 -2.9 409.6 -6.9L409.2 -6.9Q401.9 1 392.8 1ZM402 -8.4Q406.2 -8.4 408.9 -11.3L408.9 -24.7Q404 -23.7 401.3 -22.5Q398.6 -21.3 397.45 -19.55Q396.3 -17.8 396.3 -14.9Q396.3 -11.6 397.7 -10Q399.1 -8.4 402 -8.4ZM499.9 -3.5L499.9 0L469.9 0L469.9 -3.5L476.9 -5.5L476.9 -27.9Q476.9 -33.8 476.7 -36.2Q476.5 -38.6 475.9 -39.9Q474.9 -42.4 472.6 -43.7Q470.3 -45 467.1 -45Q464.5 -45 462.55 -44.1Q460.6 -43.2 459 -41.2L459 -5.5L466 -3.5L466 0L436 0L436 -3.5L443.5 -5.5L443.5 -44L435.9 -46.8L435.9 -49.1L456.3 -54L458.5 -54L458.5 -46.6Q462 -50 467 -52Q472 -54 476.9 -54Q481.8 -54 485.4 -51.9Q489 -49.8 490.9 -46Q491.8 -44 492.1 -41.2Q492.4 -38.4 492.4 -31.8L492.4 -5.5Z"/>
  <path fill="#8A2331" d="M546.70,-57.00L552.76,-38.34L572.38,-38.34L556.51,-26.81L562.57,-8.16L546.70,-19.69L530.83,-8.16L536.89,-26.81L521.02,-38.34L540.64,-38.34Z"/>
  <path fill="#0E1A2B" d="M661.4 -9.8Q662.4 -7.4 663.5 -6.2Q664.6 -5 666.5 -4.5Q668.4 -4 672.2 -3.7L672.2 0L631 0L631 -3.7Q636.6 -3.9 638.7 -4.65Q640.8 -5.4 640.8 -7.4Q640.8 -9 639.9 -11.4L635.9 -22.2L613.4 -22.2L610.5 -14.6Q609.4 -11.6 609.4 -9.9Q609.4 -7.4 611.95 -6Q614.5 -4.6 620.7 -3.7L620.7 0L589.7 0L589.7 -3.7Q594.6 -4.5 596.9 -5.5Q599.2 -6.5 600.55 -8.45Q601.9 -10.4 603.6 -14.8L622.5 -63L617.9 -73.3L632.8 -79L661.4 -9.8ZM633.8 -27.9L625.1 -51.6L624.7 -51.6L615.6 -27.9ZM693.7 1Q687.4 1 682.15 -2.45Q676.9 -5.9 673.9 -12Q670.9 -18.1 670.9 -25.6Q670.9 -33.9 674.35 -40.35Q677.8 -46.8 684 -50.4Q690.2 -54 698.2 -54Q704.2 -54 709.8 -51.5L709.8 -73L701.3 -75.8L701.3 -78.1L723.1 -83L725.3 -83L725.3 -9.8L733.2 -7.3L733.2 -5.2L712.4 1L710.6 1L710.6 -5.1L710.1 -5.3Q707 -2.3 702.75 -0.65Q698.5 1 693.7 1ZM700.1 -6.2Q705.9 -6.2 709.8 -11.4L709.8 -36.2Q709.8 -41.8 707.15 -45.2Q704.5 -48.6 700.2 -48.6Q694.7 -48.6 691.35 -42.75Q688 -36.9 688 -27.3Q688 -17.5 691.2 -11.85Q694.4 -6.2 700.1 -6.2ZM740.1 -45.2Q739 -47.6 737.6 -48.4Q736.2 -49.2 732.3 -49.5L732.3 -53L766 -53L766 -49.5Q761.6 -49.1 759.9 -48.4Q758.2 -47.7 758.2 -46.2Q758.2 -45.4 758.7 -44.1L769.9 -17.1L770.3 -17.1L780.1 -41.9Q781.1 -44.6 781.1 -45.8Q781.1 -47.4 779.55 -48.15Q778 -48.9 773.9 -49.5L773.9 -53L797.4 -53L797.4 -49.5Q793.4 -48.9 791.45 -48.2Q789.5 -47.5 788.35 -46.15Q787.2 -44.8 786 -41.8L768.9 1L760.9 1ZM804.8 -69.7Q804.8 -73.1 807.15 -75.55Q809.5 -78 813.4 -78Q817.4 -78 819.85 -75.55Q822.3 -73.1 822.3 -69.7Q822.3 -66.4 819.95 -63.95Q817.6 -61.5 813.4 -61.5Q809.4 -61.5 807.1 -63.95Q804.8 -66.4 804.8 -69.7ZM829.3 0L797.3 0L797.3 -3.5L805.8 -5.5L805.8 -44.1L797.3 -46.8L797.3 -49.2L819.2 -54L821.3 -54L821.3 -5.5L829.3 -3.5ZM857 -54Q860.8 -54 864.4 -53.55Q868 -53.1 870.2 -52.3L870.2 -38.4L866.3 -38.4Q864.9 -49 856.3 -49Q852.9 -49 850.8 -47.35Q848.7 -45.7 848.7 -43Q848.7 -40.1 850.9 -38.3Q853.1 -36.5 858 -34.1Q862.7 -31.8 865.65 -29.85Q868.6 -27.9 870.7 -24.5Q872.8 -21.1 872.8 -16.1Q872.8 -8 867.1 -3.5Q861.4 1 851.1 1Q847.2 1 842.9 0.45Q838.6 -0.1 835.5 -1.1L834.9 -17.4L839.2 -17.4Q839.6 -10.9 842.6 -7.45Q845.6 -4 850.8 -4Q854.6 -4 856.95 -6Q859.3 -8 859.3 -11.2Q859.3 -14.4 856.95 -16.35Q854.6 -18.3 849.5 -21Q844.9 -23.3 842 -25.25Q839.1 -27.2 837.05 -30.5Q835 -33.8 835 -38.6Q835 -46.2 840.55 -50.1Q846.1 -54 857 -54ZM907.9 -54Q916.8 -54 923.25 -50.35Q929.7 -46.7 933.05 -40.45Q936.4 -34.2 936.4 -26.5Q936.4 -18.8 933.05 -12.55Q929.7 -6.3 923.25 -2.65Q916.8 1 907.9 1Q899 1 892.55 -2.65Q886.1 -6.3 882.75 -12.55Q879.4 -18.8 879.4 -26.5Q879.4 -34.2 882.75 -40.45Q886.1 -46.7 892.55 -50.35Q899 -54 907.9 -54ZM896.2 -26.5Q896.2 -17.4 898.75 -10.75Q901.3 -4.1 907.9 -4.1Q914.4 -4.1 917 -10.8Q919.6 -17.5 919.6 -26.5Q919.6 -35.5 917.05 -42.15Q914.5 -48.8 907.9 -48.8Q901.3 -48.8 898.75 -42.15Q896.2 -35.5 896.2 -26.5ZM979.2 -54.1Q982.9 -54.1 985.4 -52Q987.9 -49.9 987.9 -46.7Q987.9 -43.7 986.1 -41.65Q984.3 -39.6 981.7 -39.6Q979 -39.6 976.8 -41.5Q975.3 -42.8 974.15 -43.35Q973 -43.9 971.8 -43.9Q969 -43.9 967.1 -41.4Q965.6 -39.5 965.25 -38.8Q964.9 -38.1 964.8 -37.65Q964.7 -37.2 964.7 -37L964.7 -5.5L977.8 -3.5L977.8 0L941.7 0L941.7 -3.5L949.2 -5.5L949.2 -44L941.6 -46.8L941.6 -49.2L962.1 -54L964.2 -54L964.2 -45Q968 -49.4 971.85 -51.75Q975.7 -54.1 979.2 -54.1Z"/>
</svg>